<?xml version="1.0" standalone="no"?>
<!DOCTYPE svg PUBLIC "-//W3C//DTD SVG 20010904//EN"
 "http://www.w3.org/TR/2001/REC-SVG-20010904/DTD/svg10.dtd">
<svg version="1.0" xmlns="http://www.w3.org/2000/svg"
 width="400.000000pt" height="400.000000pt" viewBox="0 0 400.000000 400.000000"
 preserveAspectRatio="xMidYMid meet">

<g transform="translate(0.000000,400.000000) scale(0.100000,-0.100000)"
fill="#000000" stroke="none">
<path d="M1157 3812 c-8 -9 -18 -28 -22 -42 -4 -14 -11 -29 -15 -35 -3 -5 -14
-31 -24 -57 -10 -27 -21 -48 -25 -48 -4 0 -25 37 -46 83 -21 45 -43 85 -49 89
-17 12 -26 9 -26 -6 0 -7 -7 -19 -16 -27 -15 -13 -36 -52 -69 -134 -9 -22 -19
-70 -22 -107 -7 -83 14 -122 92 -171 50 -31 53 -35 40 -53 -8 -10 -15 -38 -15
-61 l0 -43 -480 0 c-313 0 -480 -3 -480 -10 0 -7 165 -10 476 -10 l477 0 -26
-20 c-24 -19 -40 -20 -476 -20 l-451 0 0 -235 0 -235 365 0 c288 0 365 -3 365
-13 0 -7 -11 -28 -24 -47 -13 -19 -38 -64 -55 -100 -18 -36 -45 -90 -61 -120
-36 -69 -58 -141 -64 -204 -3 -39 3 -66 30 -135 19 -47 32 -91 30 -98 -8 -19
-53 -16 -65 4 -8 16 -11 15 -21 -7 -6 -14 -24 -33 -41 -42 -16 -9 -34 -29 -41
-43 -6 -14 -15 -25 -20 -25 -4 0 -8 -4 -8 -10 0 -5 7 -10 15 -10 11 0 15 -12
15 -49 0 -28 5 -53 10 -56 11 -7 12 -5 14 73 2 69 12 102 32 102 9 0 14 -11
14 -29 0 -17 4 -32 10 -36 13 -8 1 -35 -16 -35 -8 0 -14 -7 -14 -15 0 -17 16
-20 25 -5 9 15 25 12 25 -5 0 -9 -12 -18 -30 -22 -17 -3 -29 -11 -27 -17 3 -6
11 -9 18 -7 8 2 22 6 31 8 14 4 16 0 12 -18 -28 -130 -19 -218 29 -300 30 -50
29 -50 157 -126 78 -46 130 -85 130 -98 0 -3 -169 -167 -245 -238 l-60 -56
-212 -1 -213 0 0 130 c0 109 -2 130 -15 130 -13 0 -15 -21 -15 -130 l0 -130
-40 0 c-22 0 -40 -4 -40 -10 0 -6 92 -10 256 -10 167 0 253 -3 249 -10 -4 -6
-100 -10 -256 -10 l-249 0 0 -135 0 -135 120 0 c73 0 120 -4 120 -10 0 -5 7
-10 15 -10 9 0 12 -6 9 -15 -4 -8 -13 -15 -22 -15 -8 0 -13 -3 -10 -6 4 -3
-12 -22 -35 -42 -23 -20 -45 -41 -49 -47 -3 -5 -38 -32 -77 -60 -54 -38 -71
-56 -71 -74 0 -24 4 -23 46 14 6 6 22 17 34 25 40 26 93 72 167 143 l72 70 48
-40 c63 -52 120 -90 222 -149 l83 -48 -38 -33 c-22 -18 -45 -31 -51 -28 -8 2
-13 -4 -13 -15 0 -10 -6 -23 -14 -27 -16 -9 -116 -97 -190 -165 -48 -44 -49
-48 -26 -48 17 0 44 16 75 45 28 25 53 45 58 45 4 0 7 -11 7 -25 0 -14 4 -25
8 -25 5 0 7 14 4 30 -2 17 2 37 9 46 12 14 14 14 20 -3 3 -10 2 -24 -3 -30 -8
-10 -5 -13 8 -13 18 -1 18 -1 1 -14 -17 -13 -14 -14 30 -14 41 0 45 1 31 12
-10 7 -16 15 -13 18 3 2 9 26 14 51 8 44 7 47 -13 47 -21 1 -21 1 -2 15 26 20
25 20 76 -25 31 -28 40 -40 28 -40 -20 0 -24 -15 -8 -25 6 -3 11 -16 11 -28 1
-17 2 -18 6 -4 6 24 21 21 26 -5 l4 -23 2 23 c1 26 18 29 24 5 4 -17 5 -17 6
0 0 9 4 17 8 17 8 0 82 -49 101 -67 7 -7 30 -13 50 -13 36 0 36 1 -48 53 -87
53 -146 93 -166 112 -6 5 -23 19 -37 30 -30 22 -33 31 -14 48 18 18 65 47 75
47 27 0 182 -170 182 -200 0 -5 8 -14 19 -19 10 -6 24 -24 31 -41 14 -33 55
-45 43 -12 -46 122 -215 291 -343 342 -80 32 -274 169 -309 219 l-21 29 29 32
c43 47 40 43 121 123 41 41 100 101 130 133 88 95 267 262 311 291 90 60 86
59 106 42 34 -29 114 -70 130 -67 11 2 4 11 -24 31 -37 25 -58 58 -46 70 2 3
36 -4 75 -14 40 -11 80 -19 91 -19 37 0 240 -89 350 -154 26 -15 47 -25 47
-21 0 14 41 -44 55 -79 22 -51 41 -47 36 6 -3 30 16 20 46 -22 30 -42 43 -50
43 -24 0 18 21 13 90 -21 53 -27 213 -84 250 -90 14 -2 52 -11 85 -19 293 -73
503 -108 640 -106 222 3 218 4 259 -34 23 -22 43 -33 56 -31 34 6 109 -104
164 -240 26 -63 36 -137 37 -271 l1 -124 299 0 299 0 0 225 0 225 -310 0
c-299 0 -310 1 -320 20 -11 20 -8 20 310 20 207 0 320 4 320 10 0 6 -116 10
-328 10 l-327 0 -19 35 c-11 20 -34 50 -52 67 l-32 31 21 46 c18 40 21 64 21
176 -1 84 -6 149 -16 183 -8 28 -12 52 -8 52 15 0 89 -180 104 -255 9 -42 9
-132 1 -175 -5 -31 -4 -36 13 -37 53 -4 67 163 28 338 -22 98 -90 292 -141
404 -37 83 -85 250 -101 355 -4 25 -11 53 -16 62 -5 11 -1 67 12 150 37 238
17 534 -55 808 -1 3 -5 23 -10 45 -5 22 -10 43 -11 48 -1 4 -2 86 -3 182 l-1
175 -73 0 -73 0 -37 55 c-20 30 -37 57 -37 60 0 14 -91 129 -166 211 -142 153
-269 229 -438 266 -140 29 -310 24 -361 -13 -5 -4 -48 -7 -94 -8 -46 -1 -91
-6 -101 -11 -10 -5 -39 -14 -66 -20 -27 -6 -61 -20 -76 -30 -15 -11 -30 -20
-34 -20 -18 0 -125 -80 -176 -132 l-58 -58 -5 27 c-3 16 -10 42 -15 58 -72
244 -81 263 -113 227z m1033 -38 c47 -9 99 -22 117 -30 17 -8 35 -14 39 -14
10 0 147 -81 154 -90 3 -4 14 -10 25 -14 24 -7 211 -187 244 -233 l22 -33 -48
-62 c-26 -35 -53 -68 -58 -74 -6 -6 -55 -13 -110 -17 l-100 -5 -30 61 c-57
115 -126 207 -177 233 -40 21 -52 17 -26 -8 76 -73 104 -118 242 -393 121
-239 206 -463 206 -541 0 -38 -8 -41 -50 -19 -34 18 -40 45 -10 45 11 0 20 4
20 9 0 20 -13 41 -25 41 -6 0 -20 9 -30 20 -10 11 -23 20 -29 20 -6 1 -26 35
-45 76 -29 63 -33 79 -23 95 17 26 15 31 -10 27 -20 -3 -31 12 -83 109 -58
108 -109 183 -125 183 -8 0 9 -55 25 -80 23 -36 124 -240 119 -240 -10 0 -23
16 -144 175 -8 11 -35 40 -59 64 -38 38 -50 60 -83 160 -37 111 -92 221 -111
221 -5 0 -7 -6 -4 -14 3 -8 11 -34 17 -57 6 -23 16 -49 21 -58 43 -73 108
-347 115 -481 5 -107 -1 -111 -26 -20 -24 88 -99 299 -111 314 -5 6 -16 20
-24 31 -14 20 -14 20 -15 -3 0 -13 16 -69 36 -125 19 -56 40 -131 45 -167 23
-161 23 -150 0 -150 -29 0 -27 -16 3 -24 19 -5 26 -15 32 -48 13 -74 15 -90
18 -199 2 -59 6 -113 10 -120 4 -8 -20 15 -54 51 -55 57 -120 165 -120 198 0
6 -5 14 -12 18 -25 15 0 -106 37 -179 l36 -72 -36 40 c-46 52 -94 125 -135
204 -30 57 -32 64 -16 73 20 11 12 28 -15 28 -18 0 -24 15 -19 49 2 13 -15 87
-27 121 -4 8 -7 24 -9 35 -5 35 -14 89 -24 138 -6 26 -10 70 -10 97 0 49 -19
72 -21 28 -8 -116 -5 -187 11 -260 9 -46 20 -116 23 -155 5 -66 4 -73 -12 -73
-14 0 -25 19 -44 78 -14 42 -28 93 -31 112 -3 19 -10 52 -15 73 -9 39 -7 240
3 307 14 100 16 128 8 149 -7 20 -10 21 -21 8 -18 -22 -38 -160 -40 -274 -2
-60 -8 -110 -18 -132 -8 -20 -21 -57 -29 -83 -8 -26 -26 -71 -39 -100 -14 -29
-25 -63 -25 -75 0 -13 -10 -33 -21 -44 -15 -15 -18 -24 -10 -29 9 -5 9 -19 1
-56 -6 -27 -14 -66 -17 -87 -8 -59 -17 -87 -28 -84 -12 3 -15 91 -4 177 11
100 22 231 21 270 -2 57 35 219 83 363 46 140 50 157 37 157 -26 0 -130 -258
-146 -365 -3 -22 -10 -59 -15 -83 -5 -23 -9 -84 -10 -135 -1 -50 -4 -105 -6
-122 -3 -16 -8 -50 -11 -75 -4 -25 -8 -189 -9 -365 -1 -178 -8 -364 -15 -420
-14 -115 -17 -269 -5 -305 l7 -25 -19 25 c-28 35 -32 51 -49 168 -16 119 -22
134 -39 102 -16 -29 -10 -136 10 -205 13 -47 67 -135 86 -143 15 -6 231 -180
298 -240 58 -51 121 -132 121 -154 0 -5 -15 2 -33 16 -19 15 -37 26 -42 26 -4
0 -25 16 -47 36 -37 33 -66 41 -60 15 5 -23 -26 -11 -235 90 -177 85 -242 143
-287 257 -33 82 -33 81 31 266 18 54 31 102 27 105 -10 10 -45 -43 -79 -121
-60 -137 -82 -305 -49 -385 7 -18 10 -33 6 -33 -3 0 -1 -5 6 -12 14 -14 16
-38 3 -38 -16 0 -61 158 -61 217 0 55 52 262 82 328 9 19 8 31 -1 49 -11 19
-11 42 -2 110 7 48 14 146 17 219 5 150 22 427 29 472 2 17 11 84 20 150 9 66
18 129 20 140 4 22 50 180 60 207 6 16 5 16 -23 2 -28 -13 -36 -28 -48 -87
-10 -51 -14 -55 -64 -59 -46 -3 -50 -1 -63 28 -14 28 -14 34 4 60 17 26 25 29
70 29 61 0 74 17 30 40 -29 14 -35 13 -32 -7 0 -5 -3 -8 -8 -8 -12 0 -21 26
-21 60 0 47 10 60 44 60 18 0 37 5 44 12 9 9 17 6 37 -12 13 -12 22 -27 19
-31 -5 -8 17 -49 26 -49 3 0 13 20 23 45 11 25 23 45 29 45 5 0 7 4 4 9 -8 13
104 161 175 230 35 34 84 74 109 88 25 14 47 30 50 33 3 4 32 13 64 20 33 7
67 16 75 20 51 25 75 31 156 39 50 5 101 13 115 18 14 5 45 11 70 12 25 2 47
5 49 7 6 6 7 6 101 -12z m-986 -84 c9 -30 24 -89 35 -130 17 -69 17 -77 3
-105 -9 -16 -16 -32 -17 -35 -1 -13 -50 -100 -57 -100 -3 0 4 21 17 48 l23 47
-22 3 c-16 3 -31 25 -60 87 l-39 84 22 27 c11 15 21 31 21 36 0 21 43 108 50
101 4 -4 15 -33 24 -63z m-224 48 c0 -6 18 -49 40 -94 22 -46 40 -87 40 -93 0
-5 4 -11 8 -13 16 -7 62 -127 62 -162 0 -33 -2 -36 -24 -30 -14 3 -29 0 -39
-11 -15 -14 -20 -14 -59 6 -125 64 -149 116 -112 247 28 99 84 199 84 150z
m1879 -488 l22 -40 -60 0 c-34 0 -61 2 -61 5 0 8 62 75 70 75 3 0 16 -18 29
-40z m201 -92 c0 -13 1 -71 3 -131 1 -59 -1 -107 -4 -107 -9 0 -69 167 -69
191 0 10 -8 23 -19 28 -10 6 -21 17 -25 26 -4 12 5 15 54 15 55 0 60 -2 60
-22z m-176 -6 c32 -6 42 -13 53 -40 l13 -33 -67 -65 c-61 -60 -70 -65 -97 -59
-61 13 -160 23 -170 18 -5 -3 -7 -2 -4 3 2 5 13 27 23 49 21 46 65 117 80 127
12 10 117 9 169 0z m-262 -19 c-4 -10 -18 -38 -30 -62 l-24 -44 -29 51 c-16
28 -29 56 -29 62 0 6 25 10 60 10 53 0 59 -2 52 -17z m-1682 -116 c0 -5 14 -7
30 -3 20 3 29 2 25 -4 -4 -6 8 -13 25 -16 l31 -7 -7 -61 c-4 -33 -8 -64 -10
-68 -2 -3 -22 -4 -44 -1 -26 4 -40 2 -40 -6 0 -6 10 -11 22 -11 20 0 21 -1 3
-20 -25 -28 -10 -38 27 -17 l30 17 -7 -42 c-13 -87 -17 -108 -22 -108 -2 0
-22 9 -43 20 -33 17 -40 26 -40 50 0 16 4 31 9 35 5 3 8 41 5 85 -4 71 -2 82
16 97 11 10 20 23 20 30 0 21 -33 14 -59 -12 -21 -22 -23 -33 -20 -102 1 -43
-1 -90 -5 -105 -17 -59 14 -94 105 -121 13 -4 14 -15 8 -69 -4 -34 -10 -142
-14 -237 -6 -183 -20 -307 -37 -328 -6 -7 -7 -13 -4 -13 9 0 -36 -84 -84 -160
-94 -149 -137 -242 -152 -328 -8 -51 -9 -78 -2 -89 17 -27 34 -27 35 -1 l0 23
16 -24 c10 -13 43 -54 75 -93 57 -67 71 -102 46 -111 -7 -2 -24 6 -38 18 -14
13 -41 32 -60 43 -163 90 -171 97 -210 186 -33 74 -29 148 17 326 13 52 37
145 53 206 16 61 47 165 69 231 23 67 41 128 41 136 0 8 14 41 31 73 38 72 61
133 54 145 -11 17 -36 -4 -58 -50 -21 -43 -50 -90 -134 -219 -19 -29 -43 -72
-54 -97 -11 -25 -21 -45 -23 -45 -2 0 1 24 6 53 9 51 67 180 148 325 25 45 51
112 66 170 38 151 38 152 99 286 25 56 28 59 41 41 8 -10 14 -23 14 -28z
m1350 -71 c46 -62 86 -118 87 -123 3 -9 -61 -36 -134 -58 -22 -6 -23 -4 -23
47 0 29 -7 91 -15 138 -17 97 -18 110 -7 110 4 -1 45 -52 92 -114z m718 -5
c12 -30 21 -56 19 -58 -2 -2 -32 7 -67 20 l-63 24 38 42 c21 23 41 38 45 34 4
-4 16 -32 28 -62z m-1390 -25 c0 -23 35 -159 53 -204 16 -40 12 -43 -58 -41
-38 1 -71 3 -74 5 -7 4 10 83 29 145 6 19 16 53 22 77 12 46 28 56 28 18z
m1105 -13 c20 -3 37 -8 37 -12 0 -3 -21 -30 -45 -59 -28 -34 -47 -49 -50 -40
-2 7 -13 38 -25 68 -11 30 -20 57 -20 59 0 2 15 1 33 -3 17 -4 49 -9 70 -13z
m243 -64 c65 -25 92 -46 98 -79 2 -14 14 -65 26 -115 77 -323 62 -695 -40
-1006 -26 -79 -87 -201 -110 -219 -4 -3 -30 -31 -58 -63 -29 -31 -52 -53 -52
-48 0 5 7 14 15 21 20 16 19 30 -1 30 -22 0 -244 -180 -279 -225 -35 -47 -85
-158 -86 -192 0 -28 0 -28 -10 -5 -17 44 -8 153 18 204 24 50 29 78 14 78 -12
0 -48 -46 -56 -71 -4 -10 -10 -19 -15 -19 -11 0 0 33 42 119 27 55 44 84 108
181 100 153 141 220 180 295 47 89 100 230 100 266 0 10 5 21 10 24 6 4 8 11
5 16 -4 5 3 47 15 93 27 107 26 279 -2 284 -13 3 -18 -7 -22 -50 -3 -29 -10
-100 -16 -158 -14 -138 -19 -170 -28 -170 -4 0 -7 46 -6 103 2 123 -12 299
-28 347 -6 19 -11 37 -11 40 1 3 -9 23 -22 45 -12 22 -30 61 -40 87 l-18 48
25 32 c14 18 47 57 73 86 45 50 51 53 83 47 20 -4 59 -15 88 -26z m-521 -96
c19 -27 35 -51 35 -54 0 -4 -28 -10 -61 -13 -67 -8 -129 -29 -171 -58 l-28
-19 0 68 0 69 63 18 c34 11 66 23 72 27 23 22 55 8 90 -38z m70 -93 c23 -19
11 -24 -48 -22 -63 2 -154 -15 -184 -34 -12 -8 -30 -14 -40 -14 -45 0 96 65
172 79 51 10 81 7 100 -9z m-885 0 l67 0 38 -60 c20 -33 44 -65 51 -71 11 -9
11 -15 3 -25 -6 -8 -16 -14 -21 -14 -6 0 -5 6 1 14 19 23 -19 37 -107 38 -60
1 -88 -3 -126 -20 -27 -12 -51 -22 -54 -22 -10 0 10 87 30 128 14 30 25 41 35
38 8 -3 45 -6 83 -6z m150 -16 c0 -16 -16 -19 -25 -4 -8 13 4 32 16 25 5 -4 9
-13 9 -21z m645 -84 c0 -16 -28 -25 -52 -16 -12 5 -13 9 -3 22 16 18 55 15 55
-6z m-203 -22 c-9 -9 -12 -7 -12 12 0 19 3 21 12 12 9 -9 9 -15 0 -24z m349
-29 c6 -11 12 -63 14 -116 3 -68 8 -100 19 -112 10 -10 16 -36 16 -62 0 -48 9
-89 19 -89 13 0 55 118 65 182 1 10 5 21 9 24 4 4 7 22 7 40 0 41 12 49 35 24
16 -18 16 -24 0 -107 -9 -48 -19 -101 -22 -118 -10 -59 -45 -149 -77 -199 -60
-94 -201 -197 -431 -314 -74 -38 -72 -38 -175 -28 -103 9 -217 37 -317 77 -90
35 -136 69 -156 112 -8 18 -27 59 -43 92 -28 61 -54 103 -87 140 -26 28 -47
71 -40 79 14 14 25 4 44 -39 22 -50 29 -57 48 -46 11 7 9 20 -8 65 -26 70 -26
76 -2 76 18 0 19 5 14 55 -7 63 14 122 50 145 19 11 20 11 11 -1 -6 -8 -15
-35 -18 -61 -6 -39 -3 -53 17 -85 13 -21 36 -44 51 -52 17 -9 26 -23 26 -38 0
-27 20 -29 99 -11 48 11 52 14 63 52 16 55 12 149 -7 187 l-16 30 40 -23 c59
-34 62 -14 6 36 -46 41 -47 44 -28 55 18 9 27 5 62 -30 26 -27 46 -39 56 -35
11 4 31 -11 62 -44 62 -68 146 -124 174 -117 12 3 30 1 40 -6 27 -17 31 -5 14
44 -9 24 -19 70 -22 101 -5 54 -5 58 15 58 15 0 26 10 35 33 8 17 21 38 30 45
15 12 15 10 6 -20 -14 -47 -1 -126 27 -168 13 -19 24 -40 24 -47 0 -21 36 -33
102 -33 71 0 92 9 82 33 -4 10 0 19 9 23 45 17 45 200 0 227 -7 4 -13 13 -13
18 0 15 58 -28 71 -52z m-851 7 c34 -13 32 -13 -56 -18 -76 -3 -98 -8 -137
-31 -45 -27 -56 -26 -39 0 14 22 116 62 157 62 22 0 56 -6 75 -13z m966 -50
c3 -8 4 -25 2 -38 -3 -22 -4 -21 -21 9 -9 18 -17 34 -17 38 0 12 31 4 36 -9z
m-200 -4 c11 -7 19 -54 15 -96 -1 -16 -7 -18 -49 -12 -28 3 -62 1 -81 -5 -28
-10 -34 -9 -46 7 -19 26 -19 54 2 69 15 11 19 9 28 -9 7 -14 26 -24 54 -30 51
-11 64 1 56 52 -6 32 0 38 21 24z m-799 -48 c8 -20 -9 -36 -30 -28 -20 7 -22
30 -4 37 21 9 27 7 34 -9z m-261 -40 c-3 -9 -6 -21 -6 -27 0 -7 -5 -4 -11 6
-11 18 -5 37 13 37 5 0 7 -7 4 -16z m1248 -43 c-3 -9 -7 -21 -8 -28 -5 -32
-13 -19 -12 21 0 36 3 42 14 34 7 -6 10 -18 6 -27z m-194 -8 c9 -8 -33 -33
-55 -33 -21 0 -45 17 -45 31 0 16 83 17 100 2z m-712 -41 c3 -40 2 -42 -24
-42 -22 0 -25 3 -16 12 7 7 12 27 12 46 0 49 24 35 28 -16z m-102 -28 l25 -20
-26 -14 c-22 -12 -27 -11 -45 5 -25 22 -25 42 -2 68 16 19 17 19 20 1 2 -11
14 -28 28 -40z m-1006 -36 c-12 -40 -24 -86 -26 -102 -5 -41 -14 -66 -24 -66
-14 0 -16 52 -4 100 13 48 64 153 72 146 2 -3 -6 -38 -18 -78z m1075 -18 c-32
-21 -55 -26 -55 -12 0 12 40 30 65 31 16 1 15 -3 -10 -19z m1031 -172 c-8
-170 -19 -227 -58 -300 -18 -35 -35 -65 -38 -68 -3 -3 -14 -21 -24 -40 -11
-19 -22 -37 -25 -40 -12 -10 -81 -120 -81 -129 0 -5 -8 -15 -17 -22 -16 -13
-17 -12 -5 3 8 9 11 25 8 35 -3 10 -8 47 -11 82 -6 60 -21 108 -31 99 -2 -3
-8 -64 -13 -138 -7 -90 -14 -136 -23 -142 -10 -6 -10 -10 2 -18 9 -6 10 -10 3
-10 -6 0 -25 11 -41 25 -39 33 -44 72 -30 232 l12 131 35 21 c50 28 171 115
200 143 42 42 96 133 115 196 11 34 21 62 24 62 2 0 2 -55 -2 -122z m-1339
-15 c-11 -10 -26 8 -20 23 5 15 7 14 15 -1 6 -9 7 -19 5 -22z m57 -88 c13 -22
28 -57 35 -77 22 -67 132 -151 233 -179 21 -5 42 -18 48 -29 6 -11 11 -61 13
-112 3 -114 -7 -130 -109 -183 -73 -38 -101 -41 -115 -15 -37 73 -74 244 -62
290 9 34 -14 16 -36 -28 -10 -21 -19 -64 -20 -97 -2 -33 -5 -62 -7 -64 -11
-11 -60 40 -73 75 -18 52 -19 222 -2 366 l14 117 30 -12 c16 -7 39 -29 51 -52z
m-550 -115 c-19 -88 -25 -150 -27 -265 -2 -144 -1 -152 25 -207 22 -48 24 -59
12 -69 -11 -9 -16 -6 -23 12 -5 13 -22 38 -36 54 -95 106 -118 148 -119 213 0
45 43 157 67 173 5 4 18 24 28 45 16 32 18 34 14 12 -4 -21 -1 -28 10 -28 10
0 15 10 15 29 0 16 6 34 14 40 8 7 12 20 9 30 -4 17 24 87 32 79 2 -2 -8 -55
-21 -118z m-384 52 c0 -5 -7 -9 -15 -9 -8 0 -15 4 -15 9 0 4 7 8 15 8 8 0 15
-4 15 -8z m2578 -147 c-3 -3 3 -36 14 -73 11 -37 21 -74 23 -82 11 -52 78
-235 110 -307 8 -17 15 -34 15 -38 0 -4 6 -21 14 -38 19 -43 39 -107 34 -112
-2 -2 -21 31 -42 73 -22 42 -47 88 -56 102 -10 14 -23 43 -30 65 -16 52 -26
61 -39 37 -8 -15 -5 -37 9 -88 44 -153 73 -334 68 -429 -5 -89 -22 -145 -38
-129 -5 5 -5 40 0 79 21 158 16 241 -18 319 -25 54 -87 118 -137 140 -22 9
-53 25 -70 34 -16 9 -50 19 -74 22 l-45 5 65 68 c86 91 133 171 160 272 12 47
27 85 32 85 6 0 8 -2 5 -5z m-779 -72 c-4 -32 -10 -80 -14 -107 -11 -85 3
-136 47 -178 21 -21 45 -38 53 -38 22 0 19 -14 -20 -94 -33 -70 -34 -75 -32
-182 l2 -110 -80 22 c-44 12 -113 27 -153 34 -40 8 -75 17 -78 22 -3 4 -12 8
-20 8 -8 0 -60 22 -117 49 -56 27 -112 52 -125 56 -24 7 -82 52 -82 64 0 22
313 -12 367 -40 45 -23 54 -24 47 -4 -11 26 -88 44 -264 60 -158 14 -177 18
-207 41 -34 26 -42 44 -20 44 6 0 37 12 67 26 30 15 66 27 80 28 20 1 28 9 38
39 14 44 17 150 7 219 l-7 47 63 -15 c35 -9 114 -16 174 -17 l110 -2 80 43
c43 23 82 42 85 42 4 0 3 -26 -1 -57z m-826 -253 c3 -11 1 -20 -4 -20 -5 0 -9
9 -9 20 0 11 2 20 4 20 2 0 6 -9 9 -20z m-441 -9 c15 -8 30 -21 33 -30 3 -9
25 -29 50 -44 25 -16 45 -30 45 -31 0 -2 -26 3 -58 9 -66 14 -97 28 -110 51
-9 17 -4 67 7 62 3 -2 18 -10 33 -17z m1688 -131 c0 -5 -10 -10 -22 -10 -19 0
-20 2 -8 10 19 13 30 13 30 0z m254 -30 c38 -15 65 -33 90 -64 66 -81 82 -161
64 -323 -6 -62 -15 -113 -19 -113 -4 0 -24 20 -44 45 -21 24 -53 50 -72 57
-28 10 -41 25 -64 70 -16 31 -33 60 -39 63 -23 14 -21 -5 4 -55 l26 -51 -31 5
c-17 2 -32 6 -34 8 -1 2 -14 53 -28 113 -15 61 -29 121 -33 134 -6 20 -4 22
15 16 17 -5 21 -2 21 14 0 11 -4 22 -9 25 -5 3 -11 17 -14 32 -3 19 1 28 17
34 36 15 93 11 150 -10z m-230 -50 c3 -19 13 -60 22 -90 9 -30 18 -66 21 -80
2 -14 8 -43 13 -65 15 -64 15 -65 -39 -65 -43 0 -80 18 -66 32 8 7 -26 197
-45 253 l-19 54 47 3 c26 2 50 1 54 -2 3 -3 9 -21 12 -40z m-127 -17 c13 -30
43 -200 43 -245 0 -25 -4 -28 -32 -28 -17 0 -60 5 -96 11 l-64 11 4 47 c6 59
47 149 89 195 18 20 35 36 38 36 3 0 12 -12 18 -27z m-786 -87 c148 -70 332
-131 431 -141 59 -7 128 -48 155 -94 13 -23 22 -41 20 -41 -3 0 -22 6 -43 14
-22 7 -61 16 -89 20 -27 4 -81 17 -120 28 -38 11 -79 20 -90 19 -31 -1 -145
36 -200 64 -28 14 -53 25 -58 25 -4 0 -23 10 -42 23 -27 17 -35 29 -35 52 0
17 -7 41 -16 53 -8 12 -13 22 -11 22 2 0 47 -20 98 -44z m724 -200 c22 -4 101
-11 175 -16 172 -11 260 -37 298 -89 l20 -27 -160 2 c-156 3 -326 25 -339 46
-3 5 -9 9 -13 9 -21 -3 -27 3 -41 35 -19 47 -19 56 3 50 9 -2 35 -7 57 -10z"/>
<path d="M1136 3618 c-10 -40 -7 -58 12 -58 14 0 17 -10 20 -57 2 -59 12 -80
31 -68 11 6 7 144 -5 188 -8 26 -50 22 -58 -5z"/>
<path d="M3037 2044 c-2 -5 -12 -45 -21 -89 -19 -89 -40 -168 -64 -235 -19
-56 -81 -160 -95 -160 -6 0 -8 -3 -4 -6 3 -3 -9 -20 -28 -38 -53 -51 -115 -90
-166 -104 -56 -14 -24 -27 71 -28 73 -1 104 3 135 17 54 24 88 56 81 74 -4 12
-14 9 -53 -15 -26 -16 -66 -32 -88 -35 l-40 -7 30 26 c17 14 34 25 38 26 15 0
107 110 107 128 0 6 3 12 8 14 28 12 112 287 112 368 0 45 -13 80 -23 64z"/>
<path d="M2398 2220 c-8 -26 17 -163 31 -168 10 -3 12 0 7 14 -4 11 -10 48
-13 84 -5 63 -16 95 -25 70z"/>
<path d="M2489 2225 c-6 -5 18 -155 26 -163 14 -15 16 14 5 75 -13 71 -22 97
-31 88z"/>
<path d="M2451 2160 c3 -62 16 -110 31 -110 5 0 7 8 4 18 -3 9 -10 44 -15 76
-14 78 -23 85 -20 16z"/>
<path d="M2535 2153 c10 -89 18 -114 30 -101 9 8 -16 137 -26 144 -6 3 -7 -14
-4 -43z"/>
<path d="M2348 2173 c-5 -24 12 -93 23 -93 5 0 6 17 3 38 -4 20 -7 42 -8 49
-4 22 -14 25 -18 6z"/>
<path d="M2585 2143 c7 -51 11 -60 21 -50 10 10 -6 97 -18 97 -7 0 -8 -16 -3
-47z"/>
<path d="M2313 2137 c2 -27 10 -54 17 -60 9 -9 10 -1 5 38 -10 67 -29 86 -22
22z"/>
<path d="M1808 2095 c-8 -14 10 -147 22 -159 16 -16 19 -3 8 49 -5 28 -13 66
-17 85 -4 19 -9 30 -13 25z"/>
<path d="M1844 2053 c3 -26 11 -52 17 -58 9 -7 10 -3 5 15 -3 14 -6 40 -6 58
0 17 -5 32 -11 32 -8 0 -10 -15 -5 -47z"/>
<path d="M1675 2025 c9 -90 16 -115 27 -115 6 0 7 8 3 18 -4 9 -10 45 -14 79
-4 34 -11 66 -15 70 -4 4 -5 -19 -1 -52z"/>
<path d="M2010 2071 c0 -9 24 -21 42 -21 6 0 6 6 -2 15 -14 16 -40 20 -40 6z"/>
<path d="M1710 2020 c4 -28 12 -56 19 -63 11 -10 12 -2 6 43 -8 58 -12 70 -24
70 -4 0 -5 -23 -1 -50z"/>
<path d="M1763 2016 c3 -32 11 -64 18 -70 8 -8 10 3 4 49 -9 81 -30 101 -22
21z"/>
<path d="M1633 1987 c3 -38 10 -74 17 -80 9 -9 10 2 5 53 -10 92 -27 113 -22
27z"/>
<path d="M1593 1963 c2 -68 10 -94 23 -81 3 3 -2 39 -10 79 l-15 74 2 -72z"/>
<path d="M1555 1958 c6 -74 13 -100 24 -93 10 5 -8 125 -21 145 -6 10 -7 -8
-3 -52z"/>
<path d="M2165 1966 c-217 -49 -247 -59 -239 -80 14 -35 57 -50 144 -51 72 0
94 4 142 27 70 33 108 69 108 103 0 32 -17 32 -155 1z m123 -8 c-3 -7 -26 -17
-51 -22 -26 -4 -47 -13 -47 -18 0 -6 15 -8 38 -4 34 6 36 5 18 -9 -37 -29
-125 -55 -179 -53 -50 1 -107 21 -107 36 0 6 79 27 255 68 69 16 77 16 73 2z"/>
<path d="M3663 3258 c-31 -35 -33 -53 -13 -94 54 -105 69 -227 46 -383 -20
-131 -38 -192 -62 -206 -93 -54 -83 -151 17 -162 41 -5 50 -2 84 28 45 40 70
92 96 201 52 215 44 405 -22 558 -34 78 -103 105 -146 58z m87 -18 c25 -13 67
-138 80 -241 13 -99 2 -228 -32 -363 -23 -95 -48 -147 -84 -175 -47 -37 -114
-20 -114 29 0 22 26 50 46 50 37 0 86 201 87 355 1 115 -12 193 -44 257 -11
21 -19 45 -19 56 0 37 40 53 80 32z"/>
<path d="M3405 3165 c-29 -28 -28 -15 -11 -178 14 -130 26 -164 70 -199 21
-18 82 -24 102 -10 16 10 34 48 34 70 0 11 -9 30 -19 43 -12 16 -21 49 -25 94
-13 135 -17 153 -41 179 -32 34 -77 35 -110 1z m81 -13 c23 -15 32 -50 39
-152 6 -86 10 -107 26 -118 27 -19 24 -58 -6 -78 -22 -14 -26 -14 -54 2 -42
25 -51 52 -67 199 -14 121 -14 131 3 142 19 14 42 16 59 5z"/>
<path d="M3951 2884 c-36 -46 -23 -167 22 -215 26 -28 36 -9 13 25 -8 13 -18
53 -22 89 -6 57 -4 67 15 86 11 11 21 26 21 31 0 19 -29 10 -49 -16z"/>
<path d="M200 1945 c-7 -14 -30 -33 -51 -42 -21 -10 -39 -23 -39 -28 0 -13
146 -17 205 -7 l40 7 -53 33 c-29 18 -55 39 -58 47 -9 23 -29 18 -44 -10z m53
-30 l18 -25 -41 0 c-45 0 -47 2 -23 30 22 25 24 25 46 -5z"/>
<path d="M2 1848 l-2 -118 36 0 c42 0 43 23 1 28 -26 3 -27 6 -27 58 0 51 1
54 25 54 14 0 25 5 25 10 0 6 -11 10 -24 10 -21 0 -25 5 -29 38 -2 20 -4 -16
-5 -80z"/>
<path d="M421 1934 c-12 -14 -21 -28 -18 -30 8 -9 36 8 52 32 22 34 -4 33 -34
-2z"/>
<path d="M133 1833 c-24 -9 -13 -23 16 -23 17 0 32 -3 35 -8 7 -11 -17 -39
-38 -43 -11 -2 -21 -9 -23 -16 -3 -9 23 -12 106 -10 61 1 111 3 111 4 0 7 -53
53 -61 53 -6 0 -7 5 -4 10 3 6 20 10 36 10 20 0 29 4 27 13 -3 8 -33 12 -99
13 -52 1 -100 -1 -106 -3z m127 -48 c0 -22 -4 -25 -37 -25 l-38 1 28 24 c36
32 47 31 47 0z"/>
<path d="M1155 1195 c22 -21 57 -50 79 -66 21 -16 77 -66 125 -111 76 -73 89
-91 108 -148 18 -52 27 -66 47 -71 24 -7 26 -5 26 28 0 27 -3 34 -15 29 -10
-4 -19 5 -29 27 -7 18 -24 44 -37 59 -13 14 -48 53 -78 86 -49 55 -159 142
-236 187 -26 15 -25 12 10 -20z"/>
<path d="M1641 838 c-10 -24 -22 -54 -26 -68 -3 -14 -13 -38 -20 -55 -31 -72
-67 -160 -70 -174 -2 -9 -14 -44 -26 -79 -16 -44 -20 -65 -12 -73 18 -18 39
14 68 108 15 48 36 106 45 128 60 136 92 255 70 255 -5 0 -18 -19 -29 -42z"/>
<path d="M1394 728 c-49 -72 -74 -114 -116 -198 -13 -25 -26 -47 -30 -50 -4
-3 -15 -24 -24 -45 -17 -43 -52 -120 -89 -200 -13 -27 -25 -57 -27 -65 -2 -8
-6 -17 -9 -20 -4 -3 -23 -38 -43 -77 l-36 -73 24 0 c15 0 26 7 29 20 4 15 14
20 36 20 36 0 42 17 9 22 -31 4 -25 22 9 28 15 3 28 11 28 19 0 19 24 26 29 9
2 -7 7 -26 10 -41 6 -23 10 -27 28 -21 19 6 20 3 15 -25 -5 -26 -3 -31 12 -31
14 0 20 10 25 38 7 43 11 61 19 82 2 8 13 38 22 65 10 28 22 54 26 59 5 6 9
20 9 33 0 13 5 23 10 23 6 0 10 6 10 13 0 7 13 39 30 72 16 33 30 64 30 68 0
5 20 49 45 98 27 55 45 103 45 124 0 37 -17 48 -26 18 -7 -22 -65 -146 -109
-233 -18 -36 -36 -81 -40 -100 -4 -19 -11 -39 -15 -45 -4 -5 -11 -21 -15 -35
-4 -14 -16 -45 -27 -69 l-20 -43 -46 6 c-40 5 -49 3 -60 -14 -13 -21 -32 -27
-32 -10 0 6 11 27 24 48 12 20 27 48 31 62 4 14 11 27 14 30 4 3 15 25 26 50
10 25 27 56 36 70 9 14 17 27 17 30 2 14 75 158 91 180 10 14 37 54 60 89 35
54 40 67 28 78 -11 11 -21 2 -63 -59z m-147 -586 c17 -10 6 -45 -18 -60 -16
-10 -21 -10 -25 3 -9 21 4 65 19 65 6 0 17 -4 24 -8z"/>
<path d="M2350 670 c6 -12 22 -26 36 -32 13 -6 24 -14 24 -18 0 -4 8 -10 18
-14 51 -17 175 -117 212 -171 18 -26 39 -45 50 -45 16 0 26 -15 35 -50 1 -3 7
-18 13 -33 7 -16 12 -32 12 -37 0 -13 23 -18 36 -6 18 17 0 76 -46 151 -84
139 -140 204 -211 247 -44 27 -46 1 -4 -42 31 -31 34 -38 16 -33 -11 3 -21 9
-21 14 0 5 -7 9 -16 9 -9 0 -12 5 -8 12 4 6 3 8 -4 4 -6 -3 -37 10 -69 29 -68
41 -89 45 -73 15z"/>
<path d="M440 622 c0 -6 39 -36 88 -68 48 -31 99 -65 114 -75 15 -11 29 -19
32 -19 3 0 24 -13 48 -29 48 -32 88 -47 88 -33 0 8 -73 62 -84 62 -3 0 -50 28
-105 63 -95 60 -158 98 -173 105 -5 2 -8 -1 -8 -6z"/>
<path d="M847 373 c-11 -10 -8 -18 13 -43 11 -12 41 -57 67 -99 46 -74 59 -91
76 -91 15 0 -6 45 -58 125 -56 85 -87 119 -98 108z"/>
<path d="M1412 261 c-16 -10 -29 -82 -31 -180 -2 -67 1 -81 13 -81 9 0 16 7
16 16 0 8 4 13 9 10 18 -12 30 22 36 104 4 47 8 92 11 100 5 22 -11 46 -21 30
-5 -8 -10 -9 -14 -2 -4 6 -12 8 -19 3z"/>
<path d="M2348 193 c-13 -15 -98 -180 -98 -190 0 -2 8 -3 19 -3 25 0 35 14 60
90 45 136 45 132 19 103z"/>
<path d="M3202 117 c-15 -105 -15 -117 2 -117 16 0 24 39 27 129 4 93 -15 86
-29 -12z"/>
<path d="M2435 178 c-22 -61 -43 -128 -40 -128 3 0 0 -11 -5 -25 -9 -22 -7
-25 15 -25 19 0 25 5 26 23 1 24 2 36 13 115 7 48 2 70 -9 40z"/>
<path d="M628 125 c-6 -30 -3 -43 8 -33 3 4 4 19 2 35 l-3 28 -7 -30z"/>
<path d="M642 69 c-7 -12 -11 -24 -7 -27 7 -8 25 17 25 36 0 17 -3 15 -18 -9z"/>
</g>
</svg>
